<svg width="26" height="21" viewBox="0 0 26 21" fill="none" xmlns="http://www.w3.org/2000/svg">
<path d="M25 0.0151367H1C0.734784 0.0151367 0.48043 0.120494 0.292893 0.30803C0.105357 0.495566 0 0.74992 0 1.01514V18.0151C0 18.5456 0.210714 19.0543 0.585786 19.4293C0.960859 19.8044 1.46957 20.0151 2 20.0151H24C24.5304 20.0151 25.0391 19.8044 25.4142 19.4293C25.7893 19.0543 26 18.5456 26 18.0151V1.01514C26 0.74992 25.8946 0.495566 25.7071 0.30803C25.5196 0.120494 25.2652 0.0151367 25 0.0151367ZM13 10.6589L3.57125 2.01514H22.4287L13 10.6589ZM9.33875 10.0151L2 16.7414V3.28889L9.33875 10.0151ZM10.8188 11.3714L12.3188 12.7526C12.5032 12.922 12.7446 13.016 12.995 13.016C13.2454 13.016 13.4868 12.922 13.6712 12.7526L15.1712 11.3714L22.4212 18.0151H3.57125L10.8188 11.3714ZM16.6612 10.0151L24 3.28764V16.7426L16.6612 10.0151Z" fill="black"/>
</svg>
