<svg width="22" height="25" viewBox="0 0 22 25" fill="none" xmlns="http://www.w3.org/2000/svg">
<path d="M21.8479 22.4638L14.0229 10.1663L21.7442 1.6725C21.9188 1.47565 22.0088 1.21791 21.9946 0.955153C21.9805 0.692393 21.8634 0.445794 21.6686 0.26882C21.4739 0.0918457 21.2173 -0.0012398 20.9543 0.00974476C20.6914 0.0207293 20.4435 0.134898 20.2642 0.3275L12.9092 8.4175L7.84791 0.46375C7.75766 0.321693 7.63301 0.204713 7.48552 0.123647C7.33803 0.0425814 7.17246 5.21628e-05 7.00416 1.18294e-07H1.00416C0.824859 -8.70794e-05 0.648835 0.0480342 0.494517 0.139325C0.340199 0.230615 0.213264 0.361717 0.127004 0.518902C0.0407441 0.676088 -0.00166804 0.853574 0.00420861 1.03278C0.0100853 1.21198 0.0640346 1.3863 0.160408 1.5375L7.98541 13.8337L0.264158 22.3337C0.173991 22.4306 0.103945 22.5444 0.0580798 22.6685C0.0122144 22.7927 -0.00855859 22.9247 -0.00303455 23.0569C0.0024895 23.1891 0.0342008 23.3189 0.0902606 23.4388C0.14632 23.5586 0.225614 23.6662 0.323545 23.7552C0.421477 23.8442 0.5361 23.9129 0.660769 23.9572C0.785438 24.0016 0.917675 24.0208 1.04981 24.0137C1.18195 24.0066 1.31137 23.9733 1.43056 23.9158C1.54975 23.8583 1.65634 23.7777 1.74416 23.6787L9.09916 15.5888L14.1604 23.5425C14.2514 23.6834 14.3764 23.7991 14.5238 23.8791C14.6713 23.959 14.8364 24.0006 15.0042 24H21.0042C21.1833 23.9999 21.3591 23.9518 21.5132 23.8606C21.6673 23.7693 21.7941 23.6384 21.8804 23.4814C21.9666 23.3244 22.009 23.1472 22.0033 22.9681C21.9976 22.7891 21.944 22.6149 21.8479 22.4638ZM15.5529 22L2.82541 2H6.45041L19.1829 22H15.5529Z" fill="black"/>
</svg>
